<?xml version="1.0"?>
<svg xmlns="http://www.w3.org/2000/svg" xmlns:xlink="http://www.w3.org/1999/xlink" xmlns:svgjs="http://svgjs.com/svgjs" version="1.1" width="512" height="512" x="0" y="0" viewBox="0 0 380 380.24835" style="enable-background:new 0 0 512 512" xml:space="preserve" class=""><g><path xmlns="http://www.w3.org/2000/svg" d="m228.363281 6.824219-188.054687 197.972656h68.265625l-101.625 168.625 231.332031-209.582031h-81.917969zm0 0" fill="#b5c1b4" data-original="#feda38" style="" class=""/><path xmlns="http://www.w3.org/2000/svg" d="m6.949219 380.25c-1.539063 0-3.070313-.519531-4.339844-1.558594-2.61328125-2.148437-3.25-5.894531-1.503906-8.792968l95.386719-158.273438h-56.179688c-2.730469 0-5.195312-1.625-6.273438-4.132812-1.074218-2.507813-.554687-5.417969 1.324219-7.394532l188.054688-197.972656c2.292969-2.425781 6.011719-2.816406 8.773437-.953125 2.757813 1.871094 3.765625 5.464844 2.378906 8.5l-67.566406 147.339844h71.28125c2.820313 0 5.355469 1.738281 6.367188 4.371093 1.019531 2.632813.308594 5.621094-1.78125 7.515626l-231.335938 209.582031c-1.300781 1.175781-2.9375 1.769531-4.585937 1.769531zm49.261719-182.277344h52.367187c2.457031 0 4.730469 1.324219 5.945313 3.46875 1.207031 2.144532 1.175781 4.773438-.101563 6.878906l-77.6875 128.902344 183.847656-166.558594h-64.21875c-2.328125 0-4.496093-1.183593-5.746093-3.140624-1.253907-1.957032-1.429688-4.421876-.460938-6.535157l54.898438-119.714843zm0 0" fill="#1b1924" data-original="#000000" style="" class=""/></g></svg>
